<svg xmlns="http://www.w3.org/2000/svg" xmlns:xlink="http://www.w3.org/1999/xlink" width="149" zoomAndPan="magnify" viewBox="0 0 111.75 97.5" height="130" preserveAspectRatio="xMidYMid meet" version="1.2"><defs><clipPath id="62b72aeeca"><path d="M 0.160156 0 L 96.902344 0 L 96.902344 96.738281 L 0.160156 96.738281 Z M 0.160156 0 "/></clipPath><clipPath id="2df1a3d39c"><path d="M 6.128906 0 L 90.929688 0 C 94.226562 0 96.902344 2.671875 96.902344 5.96875 L 96.902344 90.769531 C 96.902344 94.066406 94.226562 96.738281 90.929688 96.738281 L 6.128906 96.738281 C 2.832031 96.738281 0.160156 94.066406 0.160156 90.769531 L 0.160156 5.96875 C 0.160156 2.671875 2.832031 0 6.128906 0 Z M 6.128906 0 "/></clipPath><clipPath id="fa835fbfd2"><path d="M 10.496094 0 L 107.234375 0 L 107.234375 96.738281 L 10.496094 96.738281 Z M 10.496094 0 "/></clipPath></defs><g id="bac3cacae9"><g clip-rule="nonzero" clip-path="url(#62b72aeeca)"><g clip-rule="nonzero" clip-path="url(#2df1a3d39c)"><path style=" stroke:none;fill-rule:nonzero;fill:#ff3131;fill-opacity:1;" d="M 0.160156 0 L 96.902344 0 L 96.902344 96.738281 L 0.160156 96.738281 Z M 0.160156 0 "/></g></g><g clip-rule="nonzero" clip-path="url(#fa835fbfd2)"><path style=" stroke:none;fill-rule:nonzero;fill:#004aad;fill-opacity:1;" d="M 10.496094 0 L 107.234375 0 L 107.234375 96.738281 L 10.496094 96.738281 Z M 10.496094 0 "/></g><g style="fill:#ffffff;fill-opacity:1;"><g transform="translate(19.327299, 69.580505)"><path style="stroke:none" d="M 3.640625 0 L 3.640625 -37.421875 L 10.484375 -37.421875 L 10.484375 -21.875 L 27.265625 -21.875 L 27.265625 -37.421875 L 34.109375 -37.421875 L 34.109375 0 L 27.265625 0 L 27.265625 -16.3125 L 10.484375 -16.3125 L 10.484375 0 Z M 3.640625 0 "/></g></g><g style="fill:#ffffff;fill-opacity:1;"><g transform="translate(57.067524, 69.580505)"><path style="stroke:none" d="M 20 0.640625 C 16.46875 0.640625 13.382812 -0.160156 10.75 -1.765625 C 8.113281 -3.367188 6.0625 -5.601562 4.59375 -8.46875 C 3.132812 -11.34375 2.40625 -14.6875 2.40625 -18.5 C 2.40625 -22.351562 3.160156 -25.75 4.671875 -28.6875 C 6.191406 -31.625 8.347656 -33.921875 11.140625 -35.578125 C 13.941406 -37.234375 17.269531 -38.0625 21.125 -38.0625 C 25.507812 -38.0625 29.144531 -37.007812 32.03125 -34.90625 C 34.914062 -32.8125 36.785156 -29.910156 37.640625 -26.203125 L 30 -26.203125 C 29.425781 -27.941406 28.390625 -29.300781 26.890625 -30.28125 C 25.398438 -31.269531 23.476562 -31.765625 21.125 -31.765625 C 17.375 -31.765625 14.484375 -30.578125 12.453125 -28.203125 C 10.421875 -25.835938 9.40625 -22.585938 9.40625 -18.453125 C 9.40625 -14.316406 10.410156 -11.113281 12.421875 -8.84375 C 14.441406 -6.582031 17.179688 -5.453125 20.640625 -5.453125 C 24.023438 -5.453125 26.582031 -6.367188 28.3125 -8.203125 C 30.039062 -10.046875 31.082031 -12.460938 31.4375 -15.453125 L 21.96875 -15.453125 L 21.96875 -20.578125 L 38.34375 -20.578125 L 38.34375 0 L 32.03125 0 L 31.5 -4.921875 C 30.28125 -3.140625 28.757812 -1.765625 26.9375 -0.796875 C 25.125 0.160156 22.8125 0.640625 20 0.640625 Z M 20 0.640625 "/></g></g></g></svg>