<svg xmlns="http://www.w3.org/2000/svg" xmlns:xlink="http://www.w3.org/1999/xlink" width="973" zoomAndPan="magnify" viewBox="0 0 729.75 143.999998" height="192" preserveAspectRatio="xMidYMid meet" version="1.2"><defs><clipPath id="a7eeeefefd"><path d="M 0 19.632812 L 97.203125 19.632812 L 97.203125 116.832031 L 0 116.832031 Z M 0 19.632812 "/></clipPath><clipPath id="5cc76ed8aa"><path d="M 5.996094 19.632812 L 91.203125 19.632812 C 94.519531 19.632812 97.203125 22.316406 97.203125 25.628906 L 97.203125 110.835938 C 97.203125 114.148438 94.519531 116.832031 91.203125 116.832031 L 5.996094 116.832031 C 2.683594 116.832031 0 114.148438 0 110.835938 L 0 25.628906 C 0 22.316406 2.683594 19.632812 5.996094 19.632812 Z M 5.996094 19.632812 "/></clipPath><clipPath id="8320d54a02"><path d="M 10.382812 19.632812 L 107.585938 19.632812 L 107.585938 116.832031 L 10.382812 116.832031 Z M 10.382812 19.632812 "/></clipPath></defs><g id="67e035f27f"><g style="fill:#000000;fill-opacity:1;"><g transform="translate(116.834601, 101.089324)"><path style="stroke:none" d="M 5.9375 0 L 5.9375 -61.125 L 17.109375 -61.125 L 17.109375 -35.71875 L 44.53125 -35.71875 L 44.53125 -61.125 L 55.71875 -61.125 L 55.71875 0 L 44.53125 0 L 44.53125 -26.640625 L 17.109375 -26.640625 L 17.109375 0 Z M 5.9375 0 "/></g></g><g style="fill:#000000;fill-opacity:1;"><g transform="translate(178.483641, 101.089324)"><path style="stroke:none" d="M 11.703125 -50.03125 C 9.660156 -50.03125 7.984375 -50.640625 6.671875 -51.859375 C 5.367188 -53.085938 4.71875 -54.632812 4.71875 -56.5 C 4.71875 -58.363281 5.367188 -59.890625 6.671875 -61.078125 C 7.984375 -62.273438 9.660156 -62.875 11.703125 -62.875 C 13.742188 -62.875 15.414062 -62.273438 16.71875 -61.078125 C 18.03125 -59.890625 18.6875 -58.363281 18.6875 -56.5 C 18.6875 -54.632812 18.03125 -53.085938 16.71875 -51.859375 C 15.414062 -50.640625 13.742188 -50.03125 11.703125 -50.03125 Z M 6.109375 0 L 6.109375 -43.3125 L 17.296875 -43.3125 L 17.296875 0 Z M 6.109375 0 "/></g></g><g style="fill:#000000;fill-opacity:1;"><g transform="translate(201.798505, 101.089324)"><path style="stroke:none" d="M 24.015625 -12.921875 C 21.921875 -12.921875 19.972656 -13.15625 18.171875 -13.625 L 14.9375 -10.390625 C 15.925781 -9.867188 17.265625 -9.429688 18.953125 -9.078125 C 20.640625 -8.734375 23.375 -8.382812 27.15625 -8.03125 C 32.914062 -7.507812 37.109375 -6.140625 39.734375 -3.921875 C 42.359375 -1.710938 43.671875 1.335938 43.671875 5.234375 C 43.671875 7.796875 42.96875 10.226562 41.5625 12.53125 C 40.164062 14.832031 38.007812 16.695312 35.09375 18.125 C 32.1875 19.550781 28.460938 20.265625 23.921875 20.265625 C 17.753906 20.265625 12.773438 19.113281 8.984375 16.8125 C 5.203125 14.507812 3.3125 11.0625 3.3125 6.46875 C 3.3125 2.5625 5.207031 -0.816406 9 -3.671875 C 7.832031 -4.191406 6.828125 -4.742188 5.984375 -5.328125 C 5.140625 -5.910156 4.394531 -6.519531 3.75 -7.15625 L 3.75 -9.171875 L 11.359375 -17.203125 C 7.972656 -20.171875 6.28125 -23.984375 6.28125 -28.640625 C 6.28125 -31.554688 6.992188 -34.207031 8.421875 -36.59375 C 9.847656 -38.976562 11.867188 -40.867188 14.484375 -42.265625 C 17.109375 -43.660156 20.285156 -44.359375 24.015625 -44.359375 C 26.460938 -44.359375 28.734375 -44.007812 30.828125 -43.3125 L 47.25 -43.3125 L 47.25 -36.5 L 39.828125 -35.984375 C 40.984375 -33.765625 41.5625 -31.316406 41.5625 -28.640625 C 41.5625 -25.734375 40.863281 -23.082031 39.46875 -20.6875 C 38.070312 -18.300781 36.046875 -16.410156 33.390625 -15.015625 C 30.742188 -13.617188 27.617188 -12.921875 24.015625 -12.921875 Z M 24.015625 -21.484375 C 26.285156 -21.484375 28.160156 -22.09375 29.640625 -23.3125 C 31.128906 -24.539062 31.875 -26.289062 31.875 -28.5625 C 31.875 -30.832031 31.128906 -32.578125 29.640625 -33.796875 C 28.160156 -35.015625 26.285156 -35.625 24.015625 -35.625 C 21.628906 -35.625 19.707031 -35.015625 18.25 -33.796875 C 16.789062 -32.578125 16.0625 -30.832031 16.0625 -28.5625 C 16.0625 -26.289062 16.789062 -24.539062 18.25 -23.3125 C 19.707031 -22.09375 21.628906 -21.484375 24.015625 -21.484375 Z M 13.53125 5.328125 C 13.53125 7.484375 14.535156 9.097656 16.546875 10.171875 C 18.554688 11.253906 21.015625 11.796875 23.921875 11.796875 C 26.722656 11.796875 28.992188 11.226562 30.734375 10.09375 C 32.484375 8.957031 33.359375 7.425781 33.359375 5.5 C 33.359375 3.925781 32.789062 2.613281 31.65625 1.5625 C 30.519531 0.519531 28.265625 -0.113281 24.890625 -0.34375 C 22.503906 -0.519531 20.289062 -0.785156 18.25 -1.140625 C 16.5625 -0.203125 15.351562 0.816406 14.625 1.921875 C 13.894531 3.023438 13.53125 4.160156 13.53125 5.328125 Z M 13.53125 5.328125 "/></g></g><g style="fill:#000000;fill-opacity:1;"><g transform="translate(251.484488, 101.089324)"><path style="stroke:none" d="M 5.671875 0 L 5.671875 -62.875 L 16.859375 -62.875 L 16.859375 -36.671875 C 18.304688 -39.066406 20.265625 -40.945312 22.734375 -42.3125 C 25.210938 -43.675781 28.054688 -44.359375 31.265625 -44.359375 C 36.617188 -44.359375 40.765625 -42.671875 43.703125 -39.296875 C 46.648438 -35.921875 48.125 -30.972656 48.125 -24.453125 L 48.125 0 L 37.03125 0 L 37.03125 -23.40625 C 37.03125 -27.132812 36.285156 -29.988281 34.796875 -31.96875 C 33.316406 -33.945312 30.972656 -34.9375 27.765625 -34.9375 C 24.617188 -34.9375 22.015625 -33.828125 19.953125 -31.609375 C 17.890625 -29.398438 16.859375 -26.316406 16.859375 -22.359375 L 16.859375 0 Z M 5.671875 0 "/></g></g><g style="fill:#000000;fill-opacity:1;"><g transform="translate(304.576016, 101.089324)"><path style="stroke:none" d=""/></g></g><g style="fill:#000000;fill-opacity:1;"><g transform="translate(325.358553, 101.089324)"><path style="stroke:none" d="M 32.65625 1.046875 C 26.894531 1.046875 21.859375 -0.257812 17.546875 -2.875 C 13.242188 -5.5 9.898438 -9.15625 7.515625 -13.84375 C 5.128906 -18.53125 3.9375 -23.988281 3.9375 -30.21875 C 3.9375 -36.5 5.171875 -42.039062 7.640625 -46.84375 C 10.117188 -51.65625 13.640625 -55.410156 18.203125 -58.109375 C 22.773438 -60.816406 28.207031 -62.171875 34.5 -62.171875 C 41.65625 -62.171875 47.59375 -60.453125 52.3125 -57.015625 C 57.03125 -53.585938 60.085938 -48.847656 61.484375 -42.796875 L 48.984375 -42.796875 C 48.054688 -45.640625 46.367188 -47.863281 43.921875 -49.46875 C 41.484375 -51.070312 38.34375 -51.875 34.5 -51.875 C 28.382812 -51.875 23.664062 -49.9375 20.34375 -46.0625 C 17.03125 -42.195312 15.375 -36.882812 15.375 -30.125 C 15.375 -23.375 17.015625 -18.148438 20.296875 -14.453125 C 23.585938 -10.753906 28.054688 -8.90625 33.703125 -8.90625 C 39.234375 -8.90625 43.410156 -10.40625 46.234375 -13.40625 C 49.054688 -16.40625 50.757812 -20.347656 51.34375 -25.234375 L 35.890625 -25.234375 L 35.890625 -33.625 L 62.609375 -33.625 L 62.609375 0 L 52.3125 0 L 51.4375 -8.03125 C 49.457031 -5.125 46.984375 -2.882812 44.015625 -1.3125 C 41.046875 0.257812 37.257812 1.046875 32.65625 1.046875 Z M 32.65625 1.046875 "/></g></g><g style="fill:#000000;fill-opacity:1;"><g transform="translate(392.858131, 101.089324)"><path style="stroke:none" d="M 5.671875 0 L 5.671875 -43.3125 L 15.625 -43.3125 L 16.671875 -35.1875 C 18.242188 -37.988281 20.382812 -40.21875 23.09375 -41.875 C 25.800781 -43.53125 28.988281 -44.359375 32.65625 -44.359375 L 32.65625 -32.578125 L 29.515625 -32.578125 C 27.066406 -32.578125 24.878906 -32.195312 22.953125 -31.4375 C 21.035156 -30.675781 19.539062 -29.363281 18.46875 -27.5 C 17.394531 -25.644531 16.859375 -23.054688 16.859375 -19.734375 L 16.859375 0 Z M 5.671875 0 "/></g></g><g style="fill:#000000;fill-opacity:1;"><g transform="translate(427.43747, 101.089324)"><path style="stroke:none" d="M 26.453125 1.046875 C 22.265625 1.046875 18.492188 0.0859375 15.140625 -1.828125 C 11.796875 -3.753906 9.148438 -6.421875 7.203125 -9.828125 C 5.253906 -13.234375 4.28125 -17.175781 4.28125 -21.65625 C 4.28125 -26.132812 5.269531 -30.078125 7.25 -33.484375 C 9.226562 -36.890625 11.890625 -39.550781 15.234375 -41.46875 C 18.585938 -43.394531 22.359375 -44.359375 26.546875 -44.359375 C 30.679688 -44.359375 34.421875 -43.394531 37.765625 -41.46875 C 41.117188 -39.550781 43.769531 -36.890625 45.71875 -33.484375 C 47.664062 -30.078125 48.640625 -26.132812 48.640625 -21.65625 C 48.640625 -17.175781 47.664062 -13.234375 45.71875 -9.828125 C 43.769531 -6.421875 41.101562 -3.753906 37.71875 -1.828125 C 34.34375 0.0859375 30.585938 1.046875 26.453125 1.046875 Z M 26.453125 -8.640625 C 29.367188 -8.640625 31.90625 -9.726562 34.0625 -11.90625 C 36.21875 -14.09375 37.296875 -17.34375 37.296875 -21.65625 C 37.296875 -25.96875 36.21875 -29.210938 34.0625 -31.390625 C 31.90625 -33.578125 29.398438 -34.671875 26.546875 -34.671875 C 23.578125 -34.671875 21.03125 -33.578125 18.90625 -31.390625 C 16.78125 -29.210938 15.71875 -25.96875 15.71875 -21.65625 C 15.71875 -17.34375 16.78125 -14.09375 18.90625 -11.90625 C 21.03125 -9.726562 23.546875 -8.640625 26.453125 -8.640625 Z M 26.453125 -8.640625 "/></g></g><g style="fill:#000000;fill-opacity:1;"><g transform="translate(480.354352, 101.089324)"><path style="stroke:none" d="M 21.921875 1.046875 C 16.503906 1.046875 12.328125 -0.640625 9.390625 -4.015625 C 6.453125 -7.390625 4.984375 -12.335938 4.984375 -18.859375 L 4.984375 -43.3125 L 16.0625 -43.3125 L 16.0625 -19.90625 C 16.0625 -16.1875 16.816406 -13.335938 18.328125 -11.359375 C 19.847656 -9.378906 22.238281 -8.390625 25.5 -8.390625 C 28.582031 -8.390625 31.128906 -9.492188 33.140625 -11.703125 C 35.148438 -13.910156 36.15625 -16.992188 36.15625 -20.953125 L 36.15625 -43.3125 L 47.328125 -43.3125 L 47.328125 0 L 37.46875 0 L 36.59375 -7.328125 C 35.25 -4.773438 33.3125 -2.738281 30.78125 -1.21875 C 28.25 0.289062 25.296875 1.046875 21.921875 1.046875 Z M 21.921875 1.046875 "/></g></g><g style="fill:#000000;fill-opacity:1;"><g transform="translate(533.445902, 101.089324)"><path style="stroke:none" d="M 5.671875 0 L 5.671875 -43.3125 L 15.546875 -43.3125 L 16.421875 -35.984375 C 17.753906 -38.546875 19.6875 -40.582031 22.21875 -42.09375 C 24.757812 -43.601562 27.742188 -44.359375 31.171875 -44.359375 C 36.523438 -44.359375 40.6875 -42.671875 43.65625 -39.296875 C 46.632812 -35.921875 48.125 -30.972656 48.125 -24.453125 L 48.125 0 L 36.9375 0 L 36.9375 -23.40625 C 36.9375 -27.132812 36.179688 -29.988281 34.671875 -31.96875 C 33.160156 -33.945312 30.800781 -34.9375 27.59375 -34.9375 C 24.445312 -34.9375 21.867188 -33.828125 19.859375 -31.609375 C 17.859375 -29.398438 16.859375 -26.316406 16.859375 -22.359375 L 16.859375 0 Z M 5.671875 0 "/></g></g><g style="fill:#000000;fill-opacity:1;"><g transform="translate(586.537407, 101.089324)"><path style="stroke:none" d="M 25.59375 1.046875 C 21.507812 1.046875 17.867188 0.0546875 14.671875 -1.921875 C 11.472656 -3.898438 8.941406 -6.601562 7.078125 -10.03125 C 5.210938 -13.46875 4.28125 -17.375 4.28125 -21.75 C 4.28125 -26.113281 5.210938 -30 7.078125 -33.40625 C 8.941406 -36.8125 11.472656 -39.488281 14.671875 -41.4375 C 17.867188 -43.382812 21.507812 -44.359375 25.59375 -44.359375 C 28.851562 -44.359375 31.703125 -43.742188 34.140625 -42.515625 C 36.585938 -41.296875 38.566406 -39.582031 40.078125 -37.375 L 40.078125 -62.875 L 51.265625 -62.875 L 51.265625 0 L 41.3125 0 L 40.078125 -6.203125 C 38.679688 -4.273438 36.832031 -2.582031 34.53125 -1.125 C 32.238281 0.320312 29.257812 1.046875 25.59375 1.046875 Z M 27.9375 -8.734375 C 31.550781 -8.734375 34.507812 -9.941406 36.8125 -12.359375 C 39.113281 -14.773438 40.265625 -17.875 40.265625 -21.65625 C 40.265625 -25.4375 39.113281 -28.535156 36.8125 -30.953125 C 34.507812 -33.367188 31.550781 -34.578125 27.9375 -34.578125 C 24.394531 -34.578125 21.457031 -33.382812 19.125 -31 C 16.789062 -28.613281 15.625 -25.53125 15.625 -21.75 C 15.625 -17.957031 16.789062 -14.835938 19.125 -12.390625 C 21.457031 -9.953125 24.394531 -8.734375 27.9375 -8.734375 Z M 27.9375 -8.734375 "/></g></g><g clip-rule="nonzero" clip-path="url(#a7eeeefefd)"><g clip-rule="nonzero" clip-path="url(#5cc76ed8aa)"><path style=" stroke:none;fill-rule:nonzero;fill:#ff3131;fill-opacity:1;" d="M 0 19.632812 L 97.203125 19.632812 L 97.203125 116.832031 L 0 116.832031 Z M 0 19.632812 "/></g></g><g clip-rule="nonzero" clip-path="url(#8320d54a02)"><path style=" stroke:none;fill-rule:nonzero;fill:#004aad;fill-opacity:1;" d="M 10.382812 19.632812 L 107.585938 19.632812 L 107.585938 116.832031 L 10.382812 116.832031 Z M 10.382812 19.632812 "/></g><g style="fill:#ffffff;fill-opacity:1;"><g transform="translate(19.258278, 89.544308)"><path style="stroke:none" d="M 3.65625 0 L 3.65625 -37.609375 L 10.53125 -37.609375 L 10.53125 -21.96875 L 27.390625 -21.96875 L 27.390625 -37.609375 L 34.265625 -37.609375 L 34.265625 0 L 27.390625 0 L 27.390625 -16.390625 L 10.53125 -16.390625 L 10.53125 0 Z M 3.65625 0 "/></g></g><g style="fill:#ffffff;fill-opacity:1;"><g transform="translate(57.179051, 89.544308)"><path style="stroke:none" d="M 20.09375 0.640625 C 16.539062 0.640625 13.441406 -0.160156 10.796875 -1.765625 C 8.148438 -3.378906 6.09375 -5.628906 4.625 -8.515625 C 3.15625 -11.398438 2.421875 -14.757812 2.421875 -18.59375 C 2.421875 -22.457031 3.179688 -25.863281 4.703125 -28.8125 C 6.222656 -31.769531 8.390625 -34.082031 11.203125 -35.75 C 14.015625 -37.414062 17.351562 -38.25 21.21875 -38.25 C 25.625 -38.25 29.273438 -37.191406 32.171875 -35.078125 C 35.078125 -32.960938 36.957031 -30.046875 37.8125 -26.328125 L 30.140625 -26.328125 C 29.566406 -28.078125 28.523438 -29.441406 27.015625 -30.421875 C 25.515625 -31.410156 23.582031 -31.90625 21.21875 -31.90625 C 17.457031 -31.90625 14.554688 -30.710938 12.515625 -28.328125 C 10.472656 -25.953125 9.453125 -22.6875 9.453125 -18.53125 C 9.453125 -14.375 10.460938 -11.160156 12.484375 -8.890625 C 14.515625 -6.617188 17.265625 -5.484375 20.734375 -5.484375 C 24.140625 -5.484375 26.707031 -6.40625 28.4375 -8.25 C 30.175781 -10.09375 31.226562 -12.519531 31.59375 -15.53125 L 22.078125 -15.53125 L 22.078125 -20.6875 L 38.515625 -20.6875 L 38.515625 0 L 32.171875 0 L 31.640625 -4.9375 C 30.421875 -3.144531 28.894531 -1.765625 27.0625 -0.796875 C 25.238281 0.160156 22.914062 0.640625 20.09375 0.640625 Z M 20.09375 0.640625 "/></g></g></g></svg>